<svg width="1em" height="1em" viewBox="0 0 14 14" fill="currentColor" xmlns="http://www.w3.org/2000/svg">
<path d="M9.89258 7.79004C10.3431 7.79004 10.7448 8.07283 10.8965 8.49707L11.1123 9.10059L11.8213 8.19727C12.0234 7.93999 12.333 7.79006 12.6602 7.79004H13.4678C13.7619 7.79022 14.0007 8.02813 14.001 8.32227C14.001 8.61661 13.7621 8.85528 13.4678 8.85547H12.6602L11.5361 10.2871L11.9775 11.5215H12.668C12.9622 11.5216 13.201 11.7604 13.2012 12.0547C13.2012 12.3491 12.9623 12.5877 12.668 12.5879H11.9775C11.527 12.5879 11.1243 12.3051 10.9727 11.8809L10.7578 11.2773L10.0479 12.1807C9.84578 12.4378 9.53695 12.5878 9.20996 12.5879H8.40234C8.10788 12.5879 7.86914 12.3491 7.86914 12.0547C7.86926 11.7603 8.10796 11.5215 8.40234 11.5215H9.20996L10.334 10.0908L9.89258 8.85547H9.20215C8.90769 8.85547 8.66895 8.61673 8.66895 8.32227C8.66919 8.02801 8.90784 7.79004 9.20215 7.79004H9.89258ZM11.668 1.75C12.3123 1.75 12.835 2.27266 12.835 2.91699V6.94922C12.6011 6.95603 12.3617 6.97249 12.1562 7.01465C11.9692 7.05303 11.81 7.12558 11.668 7.21387V2.91699H2.33496V8.16699L4.46191 6.04004C4.57582 5.92617 4.76012 5.92617 4.87402 6.04004L7.64453 8.80957C7.87195 9.05867 8.4365 9.63916 8.76953 9.63965H9.23145L9.32617 9.88477L8.68848 10.6768H8.3457C7.61682 10.6769 7.01757 11.2306 6.94531 11.9404L6.9375 12.085L6.94531 12.2285C6.94604 12.2357 6.9474 12.2428 6.94824 12.25H2.33496C1.69063 12.25 1.16797 11.7273 1.16797 11.083V2.91699C1.16797 2.27266 1.69063 1.75 2.33496 1.75H11.668ZM10.21 4.375C10.371 4.37504 10.502 4.50594 10.502 4.66699V5.54199C10.5018 5.7029 10.3709 5.83296 10.21 5.83301H9.33496C9.17401 5.83301 9.04314 5.70292 9.04297 5.54199V4.66699C9.04297 4.50591 9.1739 4.375 9.33496 4.375H10.21Z" fill="currentColor" fill-opacity="0.82"/>
</svg>
